%FSLAX34Y34*%
%MOMM*%
%LNSILK_TOP*%
G71*
G01*
%ADD10C, 1.50*%
%ADD11C, 5.00*%
%ADD12C, 2.00*%
%ADD13C, 0.38*%
%ADD14C, 2.00*%
%ADD15R, 1.60X1.30*%
%LPD*%
G54D10*
X386700Y728900D02*
X914650Y729200D01*
G54D10*
X935050Y708700D02*
X934950Y448900D01*
G54D10*
X915362Y428900D02*
X386700Y428900D01*
G54D10*
X366700Y708900D02*
X366700Y448900D01*
G54D10*
G75*
G01X386700Y728900D02*
G03X366700Y708900I0J-20000D01*
G01*
G54D10*
G75*
G01X366700Y448900D02*
G03X386700Y428900I20000J0D01*
G01*
X406700Y688900D02*
G54D11*
D03*
X406700Y468900D02*
G54D11*
D03*
X888600Y688900D02*
G54D11*
D03*
X888600Y468900D02*
G54D11*
D03*
X813200Y696200D02*
G54D12*
D03*
X813200Y670800D02*
G54D12*
D03*
X813200Y645400D02*
G54D12*
D03*
X813200Y620000D02*
G54D12*
D03*
X812800Y536450D02*
G54D12*
D03*
X812800Y511050D02*
G54D12*
D03*
X812800Y485650D02*
G54D12*
D03*
X812800Y460250D02*
G54D12*
D03*
X736600Y504700D02*
G54D12*
D03*
X711200Y504700D02*
G54D12*
D03*
X685800Y504700D02*
G54D12*
D03*
X660400Y504700D02*
G54D12*
D03*
X635000Y504700D02*
G54D12*
D03*
X609600Y504700D02*
G54D12*
D03*
X584200Y504700D02*
G54D12*
D03*
X558800Y504700D02*
G54D12*
D03*
X533400Y504700D02*
G54D12*
D03*
X508000Y504700D02*
G54D12*
D03*
X482600Y504700D02*
G54D12*
D03*
X457200Y504700D02*
G54D12*
D03*
X736600Y657100D02*
G54D12*
D03*
X711200Y657100D02*
G54D12*
D03*
X685800Y657100D02*
G54D12*
D03*
X660400Y657100D02*
G54D12*
D03*
X635000Y657100D02*
G54D12*
D03*
X609600Y657100D02*
G54D12*
D03*
X584200Y657100D02*
G54D12*
D03*
X558800Y657100D02*
G54D12*
D03*
X533400Y657100D02*
G54D12*
D03*
X508000Y657100D02*
G54D12*
D03*
X482600Y657100D02*
G54D12*
D03*
X457200Y657100D02*
G54D12*
D03*
X546100Y631700D02*
G54D12*
D03*
X571500Y631700D02*
G54D12*
D03*
X673100Y631700D02*
G54D12*
D03*
X647700Y631700D02*
G54D12*
D03*
G54D13*
X571500Y631700D02*
X571500Y619000D01*
X577850Y612650D01*
X733425Y612650D01*
X790575Y669800D01*
X812200Y669800D01*
X813200Y670800D01*
G54D13*
X546100Y631700D02*
X546100Y619000D01*
X561975Y603125D01*
X746125Y603125D01*
X788988Y645988D01*
X814388Y645988D01*
G54D13*
X482600Y504700D02*
X482600Y523750D01*
X495300Y536450D01*
X812800Y536450D01*
G54D13*
X457200Y504700D02*
X457200Y487238D01*
X468312Y476125D01*
X757238Y476125D01*
X792162Y511050D01*
X812800Y511050D01*
G54D13*
X533400Y657100D02*
X533400Y650750D01*
X528638Y645988D01*
X528638Y607888D01*
X544512Y592012D01*
X760412Y592012D01*
X788988Y620588D01*
X812800Y620588D01*
G54D13*
X482600Y657497D02*
X482600Y595981D01*
X500459Y578122D01*
X827881Y578122D01*
X851694Y554309D01*
X851694Y480888D01*
X831850Y461044D01*
X812800Y461044D01*
G54D10*
G75*
G01X935029Y709258D02*
G03X915029Y729258I-20000J0D01*
G01*
G54D10*
G75*
G01X914987Y429129D02*
G03X934987Y449129I0J20000D01*
G01*
X456965Y705239D02*
G54D14*
D03*
X482365Y705239D02*
G54D14*
D03*
X505447Y557938D02*
G54D14*
D03*
X607047Y557938D02*
G54D14*
D03*
G54D13*
X457200Y657225D02*
X457200Y585788D01*
X484981Y558006D01*
X504825Y558006D01*
G54D13*
X607219Y558006D02*
X827881Y558006D01*
X839788Y546100D01*
X839788Y492125D01*
X833438Y485775D01*
X812800Y485775D01*
X518619Y708369D02*
G54D15*
D03*
X518619Y689369D02*
G54D15*
D03*
G54D13*
X482600Y657225D02*
X482600Y672306D01*
X498475Y688181D01*
X519112Y688181D01*
X778669Y688181D01*
X787400Y696912D01*
X814388Y696912D01*
G54D13*
X457200Y657225D02*
X457200Y705644D01*
G54D13*
X482600Y705644D02*
X518319Y705644D01*
X519906Y707231D01*
M02*
